<svg width="145" height="150" viewBox="0 0 145 150" fill="none" xmlns="http://www.w3.org/2000/svg">
<path d="M74.5548 11.0178C65.7244 11.4622 58.7555 19.0181 59.2099 27.8878L61.5498 73.4964L46.3226 79.949C41.6186 71.0091 30.8094 67.0082 21.3704 71.0091C11.4039 75.2349 6.74637 86.7754 10.9656 96.7915C15.1867 106.805 26.6863 111.502 36.6551 107.278C43.4952 104.378 47.8331 98.031 48.5181 91.0987L67.1671 83.1945L68.2086 103.505C62.2985 107.145 58.5022 113.833 58.8829 121.283C59.4406 132.141 68.6547 140.498 79.4628 139.955C90.2737 139.41 98.5834 130.17 98.0272 119.315C97.4996 109.034 89.2079 100.999 79.1521 100.636L78.3003 84.0506L120.171 66.3044C128.316 62.8533 132.048 53.2576 128.6 45.0758L77.4145 66.7718L74.5548 11.0178ZM37.6833 94.5561C34.7058 99.3276 28.4364 100.766 23.6808 97.7695C18.9252 94.7727 17.4837 88.4744 20.461 83.7031C23.4391 78.9304 29.7078 77.4927 34.4634 80.4896C39.2191 83.4864 40.6614 89.7834 37.6833 94.5561ZM87.0537 125.668C84.0763 130.44 77.807 131.878 73.0513 128.881C68.2957 125.885 66.854 119.587 69.8315 114.815C72.8096 110.042 79.0783 108.605 83.8339 111.601C88.5894 114.598 90.0319 120.895 87.0537 125.668Z" fill="#99BAED"/>
</svg>
