<svg width="28" height="30" viewBox="0 0 28 30" fill="none" xmlns="http://www.w3.org/2000/svg">
<path d="M24.3158 12.2804V8.59626H21.8596V12.2804H18.1754V14.7365H21.8596V18.4206H24.3158V14.7365H28V12.2804H24.3158ZM14.8596 16.4557L13.5087 15.4733C13.0175 15.1049 12.5263 14.6136 12.5263 13.754C12.5263 12.8944 13.1404 12.1576 13.7544 11.7892C15.3509 10.5611 16.9474 9.21028 16.9474 6.5086C16.9474 3.92972 15.3509 2.45608 14.4912 1.71925H16.5789L18.0526 0H10.4386C5.03509 0 2.33333 3.43851 2.33333 7.12262C2.33333 9.94711 4.54386 13.0172 8.47368 13.0172H9.45614C9.33333 13.3856 8.96491 13.9996 8.96491 14.6136C8.96491 15.8417 9.45614 16.3329 10.0702 17.0697C8.35088 17.1925 5.15789 17.5609 2.82456 19.0346C0.614035 20.3854 0 22.2275 0 23.5783C0 26.4028 2.57895 29.1045 8.10526 29.1045C14.7368 29.1045 17.9299 25.4204 17.9299 21.8591C17.9298 19.2802 16.5789 17.9293 14.8596 16.4557ZM5.52632 5.28056C5.52632 2.57888 7.12281 1.35084 8.8421 1.35084C12.0351 1.35084 13.7544 5.64897 13.7544 8.10505C13.7544 11.2979 11.1754 11.912 10.193 11.912C7.12281 11.912 5.52632 8.10505 5.52632 5.28056ZM9.94732 27.3852C5.89469 27.3852 3.31574 25.5432 3.31574 22.8415C3.31574 20.1398 5.77188 19.2801 6.50872 18.9117C8.10521 18.4205 10.1929 18.2977 10.5614 18.2977C10.9298 18.2977 11.1754 18.2977 11.421 18.2977C14.3684 20.3854 15.5964 21.245 15.5964 23.2099C15.5964 25.5432 13.2632 27.3852 9.94732 27.3852Z" fill="white"/>
</svg>
